# xmcd CD database file
#
# Track frame offsets:
#	150
#	13220
#	37540
#	60122
#	80745
#	107302
#	120160
#	151580
#	182697
#
# Disc length: 2829 seconds
#
# Revision: 0
# Processed by: cddbd v1.5.2PL0 Copyright (c) Steve Scherf et al.
# Submitted via: CDex 1.51
#
DISCID=500b0b09
DTITLE=Lurrie Bell - The Blues Caravan Live At Pit Inn 1982
DYEAR=1900
DGENRE=Blues
TTITLE0=I'll Be Your 44
TTITLE1=Honest I Do
TTITLE2=I've Got To Leave Chi-Town
TTITLE3=Everyday I Have The Blues
TTITLE4=I Can't Shake This Feeling
TTITLE5=Just A Little Bit
TTITLE6=Everybody Knows About My Good Thing
TTITLE7=Mystery Train
TTITLE8=Take Me To The River
EXTD=
EXTT0=
EXTT1=
EXTT2=
EXTT3=
EXTT4=
EXTT5=
EXTT6=
EXTT7=
EXTT8=
PLAYORDER=
